<svg xmlns="http://www.w3.org/2000/svg" viewBox="0 0 500 500">
  <!-- Background -->
  <rect width="500" height="500" fill="none"/>
  
  <!-- Person -->
  <g transform="translate(200, 200)">
    <!-- Body -->
    <rect x="-50" y="-20" width="100" height="150" rx="10" fill="#3B82F6"/>
    
    <!-- Head -->
    <circle cx="0" cy="-60" r="40" fill="#F3F4F6"/>
    
    <!-- Face -->
    <circle cx="-15" cy="-65" r="5" fill="#1F2937"/>
    <circle cx="15" cy="-65" r="5" fill="#1F2937"/>
    <path d="M-15 -40 Q0 -30 15 -40" stroke="#1F2937" stroke-width="3" fill="none"/>
    
    <!-- Left arm -->
    <g transform="rotate(25)">
      <rect x="-90" y="-20" width="40" height="15" rx="5" fill="#F3F4F6"/>
    </g>
    
    <!-- Right arm holding book -->
    <g transform="rotate(-25)">
      <rect x="50" y="-20" width="40" height="15" rx="5" fill="#F3F4F6"/>
      
      <!-- Book -->
      <g transform="translate(90, -20)">
        <rect x="-15" y="-20" width="30" height="40" rx="2" fill="#EF4444"/>
        <rect x="-15" y="-20" width="30" height="5" rx="2" fill="#DC2626"/>
        <rect x="-10" y="-10" width="20" height="2" fill="#FFFFFF"/>
        <rect x="-10" y="-5" width="15" height="2" fill="#FFFFFF"/>
        <rect x="-10" y="0" width="18" height="2" fill="#FFFFFF"/>
        <rect x="-10" y="5" width="12" height="2" fill="#FFFFFF"/>
      </g>
    </g>
    
    <!-- Legs -->
    <rect x="-40" y="130" width="20" height="50" rx="5" fill="#F3F4F6"/>
    <rect x="20" y="130" width="20" height="50" rx="5" fill="#F3F4F6"/>
  </g>
  
  <!-- Desk -->
  <g transform="translate(250, 330)">
    <rect x="-100" y="0" width="200" height="10" rx="2" fill="#4B5563"/>
    <rect x="-90" y="10" width="10" height="40" fill="#4B5563"/>
    <rect x="80" y="10" width="10" height="40" fill="#4B5563"/>
  </g>
  
  <!-- Bubbles -->
  <g>
    <circle cx="100" cy="100" r="15" fill="#3B82F6" opacity="0.2"/>
    <circle cx="350" cy="120" r="20" fill="#3B82F6" opacity="0.3"/>
    <circle cx="400" cy="250" r="10" fill="#3B82F6" opacity="0.2"/>
    <circle cx="120" cy="320" r="12" fill="#3B82F6" opacity="0.3"/>
    <circle cx="450" cy="150" r="8" fill="#3B82F6" opacity="0.2"/>
  </g>
  
  <!-- School elements -->
  <g transform="translate(80, 170)">
    <rect x="0" y="0" width="50" height="60" rx="5" fill="#10B981"/>
    <rect x="10" y="10" width="30" height="5" fill="#FFFFFF"/>
    <rect x="10" y="20" width="25" height="5" fill="#FFFFFF"/>
    <rect x="10" y="30" width="30" height="5" fill="#FFFFFF"/>
    <rect x="10" y="40" width="20" height="5" fill="#FFFFFF"/>
  </g>
  
  <g transform="translate(400, 200)">
    <circle cx="0" cy="0" r="30" fill="#F59E0B"/>
    <rect x="-20" y="-2" width="40" height="4" fill="#FFFFFF"/>
    <rect x="-2" y="-20" width="4" height="40" fill="#FFFFFF"/>
  </g>
</svg>